<svg width="521" height="130" viewBox="0 0 521 130" fill="none" xmlns="http://www.w3.org/2000/svg">
<path fill-rule="evenodd" clip-rule="evenodd" d="M203.023 246.391C144.671 235.713 110.263 344.545 52.9733 329.585C3.55089 316.68 -8.91472 248.53 5.78419 194.887C21.4218 137.818 40.0515 102.331 41.5028 62.8584C43.9049 -2.47518 -17.4 -51.1985 16.9185 -107.947C52.1724 -166.243 136.321 -218.476 203.023 -195.429C275.969 -170.225 250.01 -44.2546 306.256 6.38878C349.7 45.5054 438.071 6.47861 476.042 50.3949C518.083 99.0197 528.925 168.803 515.673 230.349C501.594 295.734 476.042 329.585 435.197 329.585C369.67 329.586 382.352 246.391 203.023 246.391Z" fill="#6F15EA" fill-opacity="0.2"/>
</svg>
