<svg width="72" height="71" viewBox="0 0 72 71" fill="none" xmlns="http://www.w3.org/2000/svg">
<path d="M5.97494 67.5284L21.1312 53.6551C21.8737 52.9729 22.3124 52.0272 22.3514 51.0251C22.3904 50.0229 22.0264 49.046 21.3391 48.3082C17.7686 44.3584 15.6221 39.3493 15.2359 34.0656C14.8497 28.782 16.2456 23.5222 19.205 19.1105C22.1643 14.6987 26.52 11.384 31.5895 9.68587C36.659 7.9877 42.156 8.00193 47.2193 9.72632C52.2827 11.4507 56.6262 14.7878 59.5696 19.2149C62.513 23.642 63.8899 28.9089 63.4845 34.1905C63.0792 39.4721 60.9146 44.4701 57.3297 48.4013C53.7449 52.3326 48.9424 54.9751 43.6746 55.9149C39.8534 56.5865 35.9247 56.3492 32.2129 55.2227C31.7782 55.0898 31.3213 55.0429 30.8684 55.0847C30.4155 55.1265 29.9755 55.2561 29.5733 55.4662C29.1712 55.6763 28.8149 55.9628 28.5248 56.3092C28.2347 56.6556 28.0164 57.0553 27.8824 57.4853C27.6119 58.3538 27.7012 59.2934 28.1307 60.0973C28.5602 60.9012 29.2947 61.5037 30.1727 61.7721C37.2562 63.9344 44.8844 63.5297 51.6894 60.6305C58.4944 57.7314 64.031 52.5274 67.3063 45.9518C70.5816 39.3762 71.3814 31.8593 69.5621 24.7489C67.7429 17.6386 63.4237 11.4 57.3791 7.15203C51.3345 2.90402 43.9599 0.924457 36.5778 1.56835C29.1958 2.21223 22.2892 5.43745 17.0966 10.6656C11.904 15.8938 8.7652 22.7828 8.24296 30.0974C7.72073 37.412 9.84928 44.6735 14.2469 50.5798L1.24294 62.4962C0.908823 62.8013 0.638862 63.1686 0.44852 63.5772C0.258187 63.9857 0.151213 64.4275 0.133728 64.8772C0.116244 65.3269 0.188593 65.7756 0.346629 66.1977C0.504673 66.6199 0.745297 67.007 1.05472 67.3371C1.36362 67.6721 1.73668 67.9431 2.15221 68.1343C2.56774 68.3255 3.01746 68.4332 3.47524 68.451C3.93303 68.4688 4.38974 68.3964 4.81886 68.238C5.24799 68.0796 5.64096 67.8384 5.97494 67.5284Z" fill="#5A1DAF"/>
<path d="M39.3384 17.085C39.3487 17.8348 39.6079 18.5572 40.0753 19.1389C40.5428 19.7206 41.1919 20.1285 41.9208 20.2985C43.949 20.8068 45.7981 21.8509 47.2753 23.322C48.7526 24.7931 49.804 26.6375 50.3201 28.663C50.4864 29.358 50.874 29.9781 51.4249 30.4305C51.9758 30.8828 52.6604 31.143 53.3761 31.1722L53.658 31.1854C54.1679 31.2041 54.6764 31.1049 55.1441 30.8954C55.6117 30.6859 56.0258 30.3719 56.3541 29.9777C56.6824 29.5835 56.9161 29.1199 57.0369 28.6229C57.1577 28.1259 57.1624 27.6089 57.0507 27.1123C56.2457 23.8232 54.555 20.8258 52.1611 18.4436C49.7672 16.0615 46.761 14.385 43.4669 13.5951C42.9843 13.4809 42.4811 13.4769 41.9944 13.5834C41.5078 13.6899 41.0501 13.9041 40.6553 14.2102C40.2605 14.5164 39.9387 14.9066 39.7136 15.352C39.4886 15.7975 39.366 16.2867 39.3551 16.7836L39.3384 17.085Z" fill="#35007F"/>
</svg>
