<svg width="300" height="200" viewBox="0 0 300 200" fill="none" xmlns="http://www.w3.org/2000/svg">
<rect width="300" height="200" fill="url(#paint0_linear)"/>
<circle cx="152" cy="70" r="38" transform="rotate(90 152 70)" stroke="black" stroke-width="4"/>
<circle cx="176.368" cy="60.3448" r="3.5977" transform="rotate(90 176.368 60.3448)" stroke="black" stroke-width="2"/>
<path d="M166.253 73.1379C164.266 73.1379 162.655 71.5272 162.655 69.5402C162.655 67.5533 164.266 65.9425 166.253 65.9425C168.24 65.9425 169.851 67.5533 169.851 69.5402C169.851 71.5272 168.24 73.1379 166.253 73.1379Z" stroke="black" stroke-width="2"/>
<path d="M146.943 59.3448C142.924 59.3448 139.667 56.0873 139.667 52.069C139.667 48.0506 142.924 44.7931 146.943 44.7931C150.961 44.7931 154.218 48.0506 154.218 52.069C154.218 56.0873 150.961 59.3448 146.943 59.3448Z" stroke="black" stroke-width="2"/>
<path d="M148.782 58.4253C146.795 58.4253 145.184 56.8145 145.184 54.8276C145.184 52.8406 146.795 51.2299 148.782 51.2299C150.769 51.2299 152.379 52.8406 152.379 54.8276C152.379 56.8145 150.769 58.4253 148.782 58.4253Z" fill="black" stroke="black" stroke-width="2"/>
<path d="M176.368 81.4138C174.381 81.4138 172.77 79.803 172.77 77.8161C172.77 75.8291 174.381 74.2184 176.368 74.2184C178.355 74.2184 179.966 75.8291 179.966 77.8161C179.966 79.803 178.355 81.4138 176.368 81.4138Z" stroke="black" stroke-width="2"/>
<path d="M179.046 41.2401L153.344 71.4409M153.157 68.689L180.788 93.428" stroke="black" stroke-width="4"/>
<path d="M55.4434 148.23L60.2422 139.406H66.3066L58.8535 152.098L66.5 165H60.3652L55.4434 156.035L50.5215 165H44.3867L52.0332 152.098L44.5801 139.406H50.6445L55.4434 148.23ZM79.4994 165C79.265 164.543 79.0951 163.975 78.9896 163.295C77.7591 164.666 76.1595 165.352 74.1908 165.352C72.3275 165.352 70.7806 164.812 69.5502 163.734C68.3314 162.656 67.722 161.297 67.722 159.656C67.722 157.641 68.4662 156.094 69.9545 155.016C71.4545 153.938 73.6166 153.393 76.4408 153.381H78.7787V152.291C78.7787 151.412 78.5502 150.709 78.0931 150.182C77.6478 149.654 76.9388 149.391 75.9662 149.391C75.1107 149.391 74.4369 149.596 73.9447 150.006C73.4642 150.416 73.224 150.979 73.224 151.693H68.1439C68.1439 150.592 68.4837 149.572 69.1634 148.635C69.8431 147.697 70.8041 146.965 72.0462 146.438C73.2884 145.898 74.683 145.629 76.2298 145.629C78.5736 145.629 80.431 146.221 81.8021 147.404C83.1849 148.576 83.8763 150.229 83.8763 152.361V160.605C83.888 162.41 84.14 163.775 84.6322 164.701V165H79.4994ZM75.2982 161.467C76.0482 161.467 76.7396 161.303 77.3724 160.975C78.0052 160.635 78.474 160.184 78.7787 159.621V156.352H76.8802C74.3373 156.352 72.9837 157.23 72.8197 158.988L72.8021 159.287C72.8021 159.92 73.0248 160.441 73.4701 160.852C73.9154 161.262 74.5248 161.467 75.2982 161.467ZM97.2976 156.088H87.4011V151.992H97.2976V156.088ZM110.508 148.23L115.307 139.406H121.371L113.918 152.098L121.565 165H115.43L110.508 156.035L105.586 165H99.4512L107.098 152.098L99.6446 139.406H105.709L110.508 148.23ZM134.564 165C134.33 164.543 134.16 163.975 134.054 163.295C132.824 164.666 131.224 165.352 129.255 165.352C127.392 165.352 125.845 164.812 124.615 163.734C123.396 162.656 122.787 161.297 122.787 159.656C122.787 157.641 123.531 156.094 125.019 155.016C126.519 153.938 128.681 153.393 131.505 153.381H133.843V152.291C133.843 151.412 133.615 150.709 133.158 150.182C132.712 149.654 132.003 149.391 131.031 149.391C130.175 149.391 129.501 149.596 129.009 150.006C128.529 150.416 128.289 150.979 128.289 151.693H123.208C123.208 150.592 123.548 149.572 124.228 148.635C124.908 147.697 125.869 146.965 127.111 146.438C128.353 145.898 129.747 145.629 131.294 145.629C133.638 145.629 135.496 146.221 136.867 147.404C138.249 148.576 138.941 150.229 138.941 152.361V160.605C138.953 162.41 139.205 163.775 139.697 164.701V165H134.564ZM130.363 161.467C131.113 161.467 131.804 161.303 132.437 160.975C133.07 160.635 133.539 160.184 133.843 159.621V156.352H131.945C129.402 156.352 128.048 157.23 127.884 158.988L127.867 159.287C127.867 159.92 128.089 160.441 128.535 160.852C128.98 161.262 129.589 161.467 130.363 161.467ZM172.27 165H166.979V143.678H156.731V165H151.457V139.406H172.27V165ZM187.677 145.98H192.757V165H187.677V153.258L181.314 165H176.216V145.98H181.314V157.705L187.677 145.98ZM196.282 145.98H201.362V160.904H207.725V145.98H212.823V160.939H215.671L215.319 170.643H210.591V165H196.282V145.98ZM217.86 145.98H222.94V160.904H229.303V145.98H234.401V160.939H237.248L236.897 170.643H232.168V165H217.86V145.98ZM250.459 165C250.224 164.543 250.054 163.975 249.949 163.295C248.718 164.666 247.119 165.352 245.15 165.352C243.287 165.352 241.74 164.812 240.509 163.734C239.291 162.656 238.681 161.297 238.681 159.656C238.681 157.641 239.425 156.094 240.914 155.016C242.414 153.938 244.576 153.393 247.4 153.381H249.738V152.291C249.738 151.412 249.509 150.709 249.052 150.182C248.607 149.654 247.898 149.391 246.925 149.391C246.07 149.391 245.396 149.596 244.904 150.006C244.423 150.416 244.183 150.979 244.183 151.693H239.103C239.103 150.592 239.443 149.572 240.123 148.635C240.802 147.697 241.763 146.965 243.005 146.438C244.248 145.898 245.642 145.629 247.189 145.629C249.533 145.629 251.39 146.221 252.761 147.404C254.144 148.576 254.836 150.229 254.836 152.361V160.605C254.847 162.41 255.099 163.775 255.591 164.701V165H250.459ZM246.257 161.467C247.007 161.467 247.699 161.303 248.332 160.975C248.964 160.635 249.433 160.184 249.738 159.621V156.352H247.839C245.296 156.352 243.943 157.23 243.779 158.988L243.761 159.287C243.761 159.92 243.984 160.441 244.429 160.852C244.875 161.262 245.484 161.467 246.257 161.467Z" fill="black"/>
<defs>
<linearGradient id="paint0_linear" x1="150" y1="0" x2="150" y2="200" gradientUnits="userSpaceOnUse">
<stop stop-color="#FFD24C"/>
<stop offset="1" stop-color="#FFBF00"/>
</linearGradient>
</defs>
</svg>
