<svg width="88" height="88" viewBox="0 0 88 88" fill="none" xmlns="http://www.w3.org/2000/svg">
<path d="M70.5806 64.4676C71.1611 66.1021 72.1417 67.3241 73.5191 68.1356C74.897 68.9483 76.271 69.1117 77.6401 68.6254C79.0072 68.1399 79.9703 67.1463 80.5269 65.6466C81.0847 64.1477 81.0739 62.5812 80.4934 60.9468C79.9129 59.3124 78.9337 58.0898 77.5544 57.2777C76.177 56.4661 74.8029 56.3027 73.4358 56.7883C72.0667 57.2745 71.1036 58.2681 70.5467 59.7667C69.9901 61.2664 70.0001 62.8332 70.5806 64.4676Z" fill="#5A1DAF"/>
<path d="M66.1051 7.05806C65.4064 6.64654 64.7219 6.55972 64.0506 6.79814L17.5505 23.314C17.4478 23.1077 17.2503 22.7356 16.9574 22.1974C16.6644 21.659 16.4322 21.2297 16.26 20.9086C16.088 20.589 15.8465 20.2144 15.5346 19.7872C15.2228 19.3595 14.9208 19.0411 14.629 18.8331C14.3369 18.6235 13.9942 18.4769 13.6001 18.3906C13.2067 18.3054 12.803 18.3357 12.3901 18.4823L2.47844 22.0028C1.80689 22.2413 1.33043 22.741 1.04783 23.5001C0.765324 24.26 0.766487 25.0411 1.05111 25.8424C1.33573 26.6438 1.82742 27.2503 2.52593 27.6617C3.22476 28.0732 3.90953 28.1595 4.58054 27.9212L12.4781 25.1161L32.8473 60.7374C32.8397 60.8787 32.783 61.5578 32.6777 62.7761C32.5726 63.9944 32.5176 65.0462 32.513 65.933C32.5087 66.8207 32.5828 67.4796 32.736 67.9109C33.0206 68.7122 33.5124 69.3189 34.2109 69.7314C34.9094 70.141 35.5944 70.2287 36.2655 69.9904L38.7434 69.1103L75.9113 55.909C76.5823 55.6707 77.0589 55.1706 77.3417 54.4123C77.6243 53.6515 77.6229 52.8706 77.3382 52.0691C77.0535 51.2676 76.5621 50.6609 75.8633 50.2499C75.1653 49.8387 74.48 49.7512 73.8088 49.9896L38.1891 62.641C38.2832 60.9409 38.243 59.8456 38.0678 59.3523C37.958 59.0431 37.8052 58.7153 37.6094 58.3692C37.4136 58.0231 37.191 57.6414 36.9417 57.2259C36.6929 56.8123 36.5174 56.5013 36.4149 56.2944L74.834 36.2961C75.4455 35.9741 75.8578 35.4557 76.0679 34.738C76.2786 34.0216 76.252 33.2935 75.9891 32.5532L67.5803 8.8783C67.2954 8.07705 66.8044 7.47029 66.1051 7.05806Z" fill="#5A1DAF"/>
<path d="M35.8892 76.7892C36.4697 78.4237 37.4487 79.6463 38.8271 80.4575C40.2062 81.2697 41.5791 81.4335 42.9476 80.9475C44.3152 80.4617 45.2779 79.4683 45.835 77.9684C46.3929 76.4695 46.3819 74.9031 45.8014 73.2687C45.2208 71.6342 44.2417 70.4117 42.8625 69.5995C41.4844 68.7882 40.111 68.6245 38.7434 69.1103C37.3751 69.5963 36.4123 70.5897 35.8547 72.0885C35.2977 73.5884 35.3087 75.1548 35.8892 76.7892Z" fill="#5A1DAF"/>
</svg>
