<svg width="233" height="59" viewBox="0 0 233 59" fill="none" xmlns="http://www.w3.org/2000/svg">
<rect x="5" y="4" width="90" height="55" fill="#9860E7" fill-opacity="0.8"/>
<rect width="90" height="55" fill="#9860E7"/>
<path d="M10.148 40H5.36L13.928 27.616L5.792 16.384L9.86 14.8L16.7 24.592L22.712 15.52H27.572L19.04 27.796L27.104 40H22.208L16.304 30.784L10.148 40ZM31.5939 27.544L30.3339 23.656C30.7899 23.344 31.4139 23.08 32.2059 22.864C32.9979 22.624 33.8019 22.432 34.6179 22.288C35.4579 22.144 36.1179 22.072 36.5979 22.072C37.9899 22.072 39.2619 22.348 40.4139 22.9C41.5659 23.452 42.4779 24.22 43.1499 25.204C43.8459 26.164 44.1939 27.268 44.1939 28.516V40H41.1339L40.3419 38.128C39.6939 38.8 38.9739 39.352 38.1819 39.784C37.4139 40.216 36.5979 40.432 35.7339 40.432C33.5979 40.432 32.0139 39.916 30.9819 38.884C29.9499 37.828 29.4339 36.46 29.4339 34.78C29.4339 32.98 30.0459 31.6 31.2699 30.64C32.4939 29.68 34.0899 29.2 36.0579 29.2H39.4779V29.164C39.4539 28.3 39.1899 27.628 38.6859 27.148C38.2059 26.644 37.5339 26.392 36.6699 26.392C35.8539 26.392 34.9659 26.512 34.0059 26.752C33.0459 26.968 32.2419 27.232 31.5939 27.544ZM33.4299 34.78C33.4299 35.284 33.6339 35.74 34.0419 36.148C34.4499 36.532 34.9899 36.724 35.6619 36.724C36.3099 36.724 36.9579 36.58 37.6059 36.292C38.2779 36.004 38.9139 35.572 39.5139 34.996V32.332H35.9859C35.1699 32.332 34.5339 32.584 34.0779 33.088C33.6459 33.592 33.4299 34.156 33.4299 34.78ZM51.1753 40H46.3873L54.9553 27.616L46.8193 16.384L50.8873 14.8L57.7273 24.592L63.7393 15.52H68.5993L60.0673 27.796L68.1313 40H63.2353L57.3313 30.784L51.1753 40ZM72.6212 27.544L71.3612 23.656C71.8172 23.344 72.4412 23.08 73.2332 22.864C74.0252 22.624 74.8292 22.432 75.6452 22.288C76.4852 22.144 77.1452 22.072 77.6252 22.072C79.0172 22.072 80.2892 22.348 81.4412 22.9C82.5932 23.452 83.5052 24.22 84.1772 25.204C84.8732 26.164 85.2212 27.268 85.2212 28.516V40H82.1612L81.3692 38.128C80.7212 38.8 80.0012 39.352 79.2092 39.784C78.4412 40.216 77.6252 40.432 76.7612 40.432C74.6252 40.432 73.0412 39.916 72.0092 38.884C70.9772 37.828 70.4612 36.46 70.4612 34.78C70.4612 32.98 71.0732 31.6 72.2972 30.64C73.5212 29.68 75.1172 29.2 77.0852 29.2H80.5052V29.164C80.4812 28.3 80.2172 27.628 79.7132 27.148C79.2332 26.644 78.5612 26.392 77.6972 26.392C76.8812 26.392 75.9932 26.512 75.0332 26.752C74.0732 26.968 73.2692 27.232 72.6212 27.544ZM74.4572 34.78C74.4572 35.284 74.6612 35.74 75.0692 36.148C75.4772 36.532 76.0172 36.724 76.6892 36.724C77.3372 36.724 77.9852 36.58 78.6332 36.292C79.3052 36.004 79.9412 35.572 80.5412 34.996V32.332H77.0132C76.1972 32.332 75.5612 32.584 75.1052 33.088C74.6732 33.592 74.4572 34.156 74.4572 34.78ZM115.575 40H106.287V15.52H115.575C118.119 15.52 120.219 16.048 121.875 17.104C123.555 18.136 124.803 19.564 125.619 21.388C126.435 23.188 126.843 25.264 126.843 27.616C126.843 31.456 125.871 34.468 123.927 36.652C121.983 38.836 119.199 39.952 115.575 40ZM115.755 19.48H110.931V36.076H115.503C117.471 36.076 119.043 35.428 120.219 34.132C121.419 32.836 122.019 30.664 122.019 27.616C122.019 25.072 121.515 23.08 120.507 21.64C119.499 20.2 117.915 19.48 115.755 19.48ZM145.757 32.656H133.985C134.201 33.808 134.693 34.732 135.461 35.428C136.253 36.1 137.513 36.436 139.241 36.436C140.273 36.436 141.185 36.292 141.977 36.004C142.769 35.716 143.549 35.344 144.317 34.888L145.685 38.272C144.869 38.896 143.945 39.412 142.913 39.82C141.905 40.228 140.645 40.432 139.133 40.432C135.749 40.432 133.217 39.604 131.537 37.948C129.857 36.292 129.017 34.072 129.017 31.288C129.017 29.416 129.365 27.796 130.061 26.428C130.781 25.036 131.801 23.968 133.121 23.224C134.441 22.456 136.001 22.072 137.801 22.072C139.625 22.072 141.125 22.492 142.301 23.332C143.477 24.172 144.341 25.288 144.893 26.68C145.469 28.048 145.757 29.56 145.757 31.216V32.656ZM134.021 29.524H141.329C141.089 28.348 140.657 27.484 140.033 26.932C139.409 26.356 138.629 26.068 137.693 26.068C136.733 26.068 135.929 26.368 135.281 26.968C134.633 27.544 134.213 28.396 134.021 29.524ZM153.629 40H148.985V14.98L153.629 14.584V40ZM160.245 20.056C159.525 20.056 158.913 19.804 158.409 19.3C157.905 18.796 157.653 18.172 157.653 17.428C157.653 16.684 157.905 16.06 158.409 15.556C158.913 15.052 159.525 14.8 160.245 14.8C160.989 14.8 161.613 15.052 162.117 15.556C162.645 16.06 162.909 16.684 162.909 17.428C162.909 18.172 162.645 18.796 162.117 19.3C161.613 19.804 160.989 20.056 160.245 20.056ZM162.621 40H157.941V22.54H162.621V40ZM175.445 40H171.413L164.969 23.26L169.541 21.892L173.573 33.124L177.389 22.54H182.321L175.445 40ZM200.32 32.656H188.548C188.764 33.808 189.256 34.732 190.024 35.428C190.816 36.1 192.076 36.436 193.804 36.436C194.836 36.436 195.748 36.292 196.54 36.004C197.332 35.716 198.112 35.344 198.88 34.888L200.248 38.272C199.432 38.896 198.508 39.412 197.476 39.82C196.468 40.228 195.208 40.432 193.696 40.432C190.312 40.432 187.78 39.604 186.1 37.948C184.42 36.292 183.58 34.072 183.58 31.288C183.58 29.416 183.928 27.796 184.624 26.428C185.344 25.036 186.364 23.968 187.684 23.224C189.004 22.456 190.564 22.072 192.364 22.072C194.188 22.072 195.688 22.492 196.864 23.332C198.04 24.172 198.904 25.288 199.456 26.68C200.032 28.048 200.32 29.56 200.32 31.216V32.656ZM188.584 29.524H195.892C195.652 28.348 195.22 27.484 194.596 26.932C193.972 26.356 193.192 26.068 192.256 26.068C191.296 26.068 190.492 26.368 189.844 26.968C189.196 27.544 188.776 28.396 188.584 29.524ZM207.867 40H203.187V22.54H205.635L207.183 25.456C207.663 25.024 208.251 24.592 208.947 24.16C209.643 23.704 210.351 23.32 211.071 23.008C211.815 22.696 212.499 22.54 213.123 22.54L214.059 26.284C213.267 26.284 212.283 26.572 211.107 27.148C209.955 27.724 208.875 28.456 207.867 29.344V40ZM219.97 40.828L220.798 38.776L214.786 23.26L219.394 21.892L223.426 33.124L227.242 22.54H232.174L224.362 42.304C224.002 43.24 223.438 44.092 222.67 44.86C221.902 45.652 221.026 46.312 220.042 46.84C219.082 47.368 218.086 47.752 217.054 47.992L215.398 44.14C215.974 43.9 216.574 43.624 217.198 43.312C217.822 43 218.386 42.64 218.89 42.232C219.418 41.824 219.778 41.356 219.97 40.828Z" fill="white"/>
</svg>
