<svg width="320" height="220" viewBox="0 0 320 220" fill="none" xmlns="http://www.w3.org/2000/svg">
<g filter="url(#filter0_d)">
<rect x="10" y="6" width="300" height="200" rx="10" fill="url(#paint0_linear)"/>
</g>
<circle cx="162" cy="76" r="38" transform="rotate(90 162 76)" stroke="black" stroke-width="4"/>
<circle cx="186.368" cy="66.3448" r="3.5977" transform="rotate(90 186.368 66.3448)" stroke="black" stroke-width="2"/>
<path d="M176.253 79.1379C174.266 79.1379 172.655 77.5272 172.655 75.5402C172.655 73.5533 174.266 71.9425 176.253 71.9425C178.24 71.9425 179.851 73.5533 179.851 75.5402C179.851 77.5272 178.24 79.1379 176.253 79.1379Z" stroke="black" stroke-width="2"/>
<path d="M156.943 65.3448C152.924 65.3448 149.667 62.0873 149.667 58.069C149.667 54.0506 152.924 50.7931 156.943 50.7931C160.961 50.7931 164.218 54.0506 164.218 58.069C164.218 62.0873 160.961 65.3448 156.943 65.3448Z" stroke="black" stroke-width="2"/>
<path d="M158.782 64.4253C156.795 64.4253 155.184 62.8145 155.184 60.8276C155.184 58.8406 156.795 57.2299 158.782 57.2299C160.769 57.2299 162.379 58.8406 162.379 60.8276C162.379 62.8145 160.769 64.4253 158.782 64.4253Z" fill="black" stroke="black" stroke-width="2"/>
<path d="M186.368 87.4138C184.381 87.4138 182.77 85.803 182.77 83.8161C182.77 81.8291 184.381 80.2184 186.368 80.2184C188.355 80.2184 189.966 81.8291 189.966 83.8161C189.966 85.803 188.355 87.4138 186.368 87.4138Z" stroke="black" stroke-width="2"/>
<path d="M189.046 47.2401L163.344 77.4409M163.157 74.689L190.788 99.428" stroke="black" stroke-width="4"/>
<path d="M65.4434 154.23L70.2422 145.406H76.3066L68.8535 158.098L76.5 171H70.3652L65.4434 162.035L60.5215 171H54.3867L62.0332 158.098L54.5801 145.406H60.6445L65.4434 154.23ZM89.4994 171C89.265 170.543 89.0951 169.975 88.9896 169.295C87.7591 170.666 86.1595 171.352 84.1908 171.352C82.3275 171.352 80.7806 170.812 79.5502 169.734C78.3314 168.656 77.722 167.297 77.722 165.656C77.722 163.641 78.4662 162.094 79.9545 161.016C81.4545 159.938 83.6166 159.393 86.4408 159.381H88.7787V158.291C88.7787 157.412 88.5502 156.709 88.0931 156.182C87.6478 155.654 86.9388 155.391 85.9662 155.391C85.1107 155.391 84.4369 155.596 83.9447 156.006C83.4642 156.416 83.224 156.979 83.224 157.693H78.1439C78.1439 156.592 78.4837 155.572 79.1634 154.635C79.8431 153.697 80.8041 152.965 82.0462 152.438C83.2884 151.898 84.683 151.629 86.2298 151.629C88.5736 151.629 90.431 152.221 91.8021 153.404C93.1849 154.576 93.8763 156.229 93.8763 158.361V166.605C93.888 168.41 94.14 169.775 94.6322 170.701V171H89.4994ZM85.2982 167.467C86.0482 167.467 86.7396 167.303 87.3724 166.975C88.0052 166.635 88.474 166.184 88.7787 165.621V162.352H86.8802C84.3373 162.352 82.9837 163.23 82.8197 164.988L82.8021 165.287C82.8021 165.92 83.0248 166.441 83.4701 166.852C83.9154 167.262 84.5248 167.467 85.2982 167.467ZM107.298 162.088H97.4011V157.992H107.298V162.088ZM120.508 154.23L125.307 145.406H131.371L123.918 158.098L131.565 171H125.43L120.508 162.035L115.586 171H109.451L117.098 158.098L109.645 145.406H115.709L120.508 154.23ZM144.564 171C144.33 170.543 144.16 169.975 144.054 169.295C142.824 170.666 141.224 171.352 139.255 171.352C137.392 171.352 135.845 170.812 134.615 169.734C133.396 168.656 132.787 167.297 132.787 165.656C132.787 163.641 133.531 162.094 135.019 161.016C136.519 159.938 138.681 159.393 141.505 159.381H143.843V158.291C143.843 157.412 143.615 156.709 143.158 156.182C142.712 155.654 142.003 155.391 141.031 155.391C140.175 155.391 139.501 155.596 139.009 156.006C138.529 156.416 138.289 156.979 138.289 157.693H133.208C133.208 156.592 133.548 155.572 134.228 154.635C134.908 153.697 135.869 152.965 137.111 152.438C138.353 151.898 139.747 151.629 141.294 151.629C143.638 151.629 145.496 152.221 146.867 153.404C148.249 154.576 148.941 156.229 148.941 158.361V166.605C148.953 168.41 149.205 169.775 149.697 170.701V171H144.564ZM140.363 167.467C141.113 167.467 141.804 167.303 142.437 166.975C143.07 166.635 143.539 166.184 143.843 165.621V162.352H141.945C139.402 162.352 138.048 163.23 137.884 164.988L137.867 165.287C137.867 165.92 138.089 166.441 138.535 166.852C138.98 167.262 139.589 167.467 140.363 167.467ZM182.27 171H176.979V149.678H166.731V171H161.457V145.406H182.27V171ZM197.677 151.98H202.757V171H197.677V159.258L191.314 171H186.216V151.98H191.314V163.705L197.677 151.98ZM206.282 151.98H211.362V166.904H217.725V151.98H222.823V166.939H225.671L225.319 176.643H220.591V171H206.282V151.98ZM227.86 151.98H232.94V166.904H239.303V151.98H244.401V166.939H247.248L246.897 176.643H242.168V171H227.86V151.98ZM260.459 171C260.224 170.543 260.054 169.975 259.949 169.295C258.718 170.666 257.119 171.352 255.15 171.352C253.287 171.352 251.74 170.812 250.509 169.734C249.291 168.656 248.681 167.297 248.681 165.656C248.681 163.641 249.425 162.094 250.914 161.016C252.414 159.938 254.576 159.393 257.4 159.381H259.738V158.291C259.738 157.412 259.509 156.709 259.052 156.182C258.607 155.654 257.898 155.391 256.925 155.391C256.07 155.391 255.396 155.596 254.904 156.006C254.423 156.416 254.183 156.979 254.183 157.693H249.103C249.103 156.592 249.443 155.572 250.123 154.635C250.802 153.697 251.763 152.965 253.005 152.438C254.248 151.898 255.642 151.629 257.189 151.629C259.533 151.629 261.39 152.221 262.761 153.404C264.144 154.576 264.836 156.229 264.836 158.361V166.605C264.847 168.41 265.099 169.775 265.591 170.701V171H260.459ZM256.257 167.467C257.007 167.467 257.699 167.303 258.332 166.975C258.964 166.635 259.433 166.184 259.738 165.621V162.352H257.839C255.296 162.352 253.943 163.23 253.779 164.988L253.761 165.287C253.761 165.92 253.984 166.441 254.429 166.852C254.875 167.262 255.484 167.467 256.257 167.467Z" fill="black"/>
<defs>
<filter id="filter0_d" x="0" y="0" width="320" height="220" filterUnits="userSpaceOnUse" color-interpolation-filters="sRGB">
<feFlood flood-opacity="0" result="BackgroundImageFix"/>
<feColorMatrix in="SourceAlpha" type="matrix" values="0 0 0 0 0 0 0 0 0 0 0 0 0 0 0 0 0 0 127 0" result="hardAlpha"/>
<feOffset dy="4"/>
<feGaussianBlur stdDeviation="5"/>
<feComposite in2="hardAlpha" operator="out"/>
<feColorMatrix type="matrix" values="0 0 0 0 0 0 0 0 0 0 0 0 0 0 0 0 0 0 0.25 0"/>
<feBlend mode="normal" in2="BackgroundImageFix" result="effect1_dropShadow"/>
<feBlend mode="normal" in="SourceGraphic" in2="effect1_dropShadow" result="shape"/>
</filter>
<linearGradient id="paint0_linear" x1="160" y1="6" x2="160" y2="206" gradientUnits="userSpaceOnUse">
<stop stop-color="#FFD24C"/>
<stop offset="1" stop-color="#FFBF00"/>
</linearGradient>
</defs>
</svg>
