<svg width="99" height="91" viewBox="0 0 99 91" fill="none" xmlns="http://www.w3.org/2000/svg">
<g style="mix-blend-mode:luminosity">
<path d="M78.891 64.4187C79.462 66.0263 80.5193 67.1954 82.0589 67.928C83.5989 68.6617 85.1737 68.7431 86.7819 68.1719C88.3878 67.6015 89.5583 66.545 90.2905 65.0043C91.0242 63.4643 91.1061 61.8906 90.5351 60.283C89.9641 58.6754 88.9086 57.5057 87.3668 56.7726C85.8272 56.0401 84.2525 55.9586 82.6466 56.529C81.0384 57.1002 79.8678 58.1567 79.1352 59.6963C78.403 61.2371 78.32 62.8111 78.891 64.4187Z" fill="#881A41"/>
<path d="M77.1891 6.99218C76.4081 6.62071 75.624 6.5747 74.8355 6.85476L20.2141 26.2551C20.1081 26.054 19.9027 25.6919 19.5974 25.1687C19.292 24.6452 19.0501 24.2277 18.8708 23.9154C18.6917 23.6046 18.4358 23.2427 18.1018 22.8322C17.768 22.4212 17.4389 22.1194 17.1149 21.9279C16.7907 21.7348 16.4043 21.6082 15.955 21.5451C15.5064 21.4833 15.039 21.538 14.5541 21.7103L2.9113 25.8455C2.12246 26.1257 1.54288 26.6566 1.17122 27.4366C0.799637 28.2173 0.753909 29.0022 1.03386 29.7904C1.31381 30.5786 1.8443 31.1585 2.62507 31.5299C3.4062 31.9013 4.19071 31.9468 4.9789 31.6669L14.2558 28.3719L35.6 62.9436C35.5828 63.0861 35.4764 63.772 35.2815 65.0028C35.087 66.2334 34.9601 67.2938 34.9014 68.1853C34.8429 69.0777 34.8887 69.7354 35.0394 70.1596C35.3193 70.9478 35.8499 71.5279 36.6307 71.9003C37.4115 72.2699 38.1961 72.3168 38.9845 72.0368L41.8952 71.003L85.5544 55.4962C86.3426 55.2162 86.9224 54.6849 87.2942 53.9058C87.6659 53.1241 87.7114 52.3395 87.4314 51.5511C87.1514 50.7628 86.6212 50.1826 85.84 49.8117C85.0599 49.4405 84.2748 49.3939 83.4864 49.6739L41.6457 64.5348C41.8567 62.8206 41.8763 61.7222 41.704 61.237C41.596 60.9329 41.4395 60.6127 41.2346 60.2766C41.0297 59.9406 40.796 59.5704 40.5335 59.1678C40.2715 58.7672 40.0878 58.4652 39.9821 58.2634L85.4939 35.8502C86.2185 35.4897 86.7252 34.944 87.0108 34.21C87.2969 33.4773 87.3101 32.7471 87.0515 32.019L78.7807 8.73261C78.5004 7.94453 77.9707 7.36433 77.1891 6.99218Z" fill="#881A41"/>
<path d="M38.1409 78.8923C38.7119 80.4999 39.7672 81.6696 41.3079 82.4018C42.8494 83.135 44.4229 83.2169 46.0303 82.646C47.6368 82.0754 48.8069 81.019 49.5397 79.4781C50.2734 77.9381 50.3551 76.3645 49.7841 74.7569C49.2131 73.1492 48.1576 71.9796 46.616 71.2465C45.0756 70.5142 43.5017 70.4324 41.8952 71.003C40.2879 71.5739 39.1176 72.6303 38.3842 74.1702C37.6516 75.7111 37.5699 77.2847 38.1409 78.8923Z" fill="#881A41"/>
</g>
</svg>
