<svg width="102" height="91" viewBox="0 0 102 91" fill="none" xmlns="http://www.w3.org/2000/svg">
<g style="mix-blend-mode:luminosity">
<path d="M78.891 64.4187C79.462 66.0263 80.5193 67.1954 82.0589 67.928C83.5989 68.6617 85.1737 68.7431 86.7819 68.1719C88.3878 67.6015 89.5583 66.545 90.2905 65.0043C91.0242 63.4643 91.1061 61.8906 90.5351 60.283C89.9641 58.6754 88.9086 57.5057 87.3668 56.7726C85.8272 56.0401 84.2525 55.9586 82.6466 56.529C81.0384 57.1002 79.8678 58.1567 79.1352 59.6963C78.403 61.2371 78.32 62.8111 78.891 64.4187Z" fill="#881A41"/>
<path d="M77.1891 6.99218C76.4081 6.62071 75.624 6.5747 74.8355 6.85476L20.2141 26.2551C20.1081 26.054 19.9027 25.6919 19.5974 25.1687C19.292 24.6452 19.0501 24.2277 18.8708 23.9154C18.6917 23.6046 18.4358 23.2427 18.1018 22.8322C17.768 22.4212 17.4389 22.1194 17.1149 21.9279C16.7907 21.7348 16.4043 21.6082 15.955 21.5451C15.5064 21.4833 15.039 21.538 14.5541 21.7103L2.9113 25.8455C2.12246 26.1257 1.54288 26.6566 1.17122 27.4366C0.799637 28.2173 0.753909 29.0022 1.03386 29.7904C1.31381 30.5786 1.8443 31.1585 2.62507 31.5299C3.4062 31.9013 4.19071 31.9468 4.9789 31.6669L14.2558 28.3719L35.6 62.9436C35.5828 63.0861 35.4764 63.772 35.2815 65.0028C35.087 66.2334 34.9601 67.2938 34.9014 68.1853C34.8429 69.0777 34.8887 69.7354 35.0394 70.1596C35.3193 70.9478 35.8499 71.5279 36.6307 71.9003C37.4115 72.2699 38.1961 72.3168 38.9845 72.0368L41.8952 71.003L85.5544 55.4962C86.3426 55.2162 86.9224 54.6849 87.2942 53.9058C87.6659 53.1241 87.7114 52.3395 87.4314 51.5511C87.1514 50.7628 86.6212 50.1826 85.84 49.8117C85.0599 49.4405 84.2748 49.3939 83.4864 49.6739L41.6457 64.5348C41.8567 62.8206 41.8763 61.7222 41.704 61.237C41.596 60.9329 41.4395 60.6127 41.2346 60.2766C41.0297 59.9406 40.796 59.5704 40.5335 59.1678C40.2715 58.7672 40.0878 58.4652 39.9821 58.2634L85.4939 35.8502C86.2185 35.4897 86.7252 34.944 87.0108 34.21C87.2969 33.4773 87.3101 32.7471 87.0515 32.019L78.7807 8.73261C78.5004 7.94453 77.9707 7.36433 77.1891 6.99218Z" fill="#881A41"/>
<path d="M38.1409 78.8923C38.7119 80.4999 39.7672 81.6696 41.3079 82.4018C42.8494 83.135 44.4229 83.2169 46.0303 82.646C47.6368 82.0754 48.8069 81.019 49.5397 79.4781C50.2734 77.9381 50.3551 76.3645 49.7841 74.7569C49.2131 73.1492 48.1576 71.9796 46.616 71.2465C45.0756 70.5142 43.5017 70.4324 41.8952 71.003C40.2879 71.5739 39.1176 72.6303 38.3842 74.1702C37.6516 75.7111 37.5699 77.2847 38.1409 78.8923Z" fill="#881A41"/>
</g>
<path d="M15.832 50H13.24L5.488 41.312V50H3.328V32.864H5.488V41.168L13.048 32.864H15.496L8.056 41.192L15.832 50ZM29.0599 43.544C29.0599 45.672 28.5159 47.32 27.4279 48.488C26.3559 49.656 24.8999 50.24 23.0599 50.24C21.9239 50.24 20.9079 49.984 20.0119 49.472C19.1319 48.944 18.4359 48.184 17.9239 47.192C17.4119 46.184 17.1559 44.968 17.1559 43.544C17.1559 41.416 17.6919 39.776 18.7639 38.624C19.8359 37.472 21.2919 36.896 23.1319 36.896C24.2999 36.896 25.3239 37.16 26.2039 37.688C27.0999 38.2 27.7959 38.952 28.2919 39.944C28.8039 40.92 29.0599 42.12 29.0599 43.544ZM19.3399 43.544C19.3399 45.064 19.6359 46.272 20.2279 47.168C20.8359 48.048 21.7959 48.488 23.1079 48.488C24.4039 48.488 25.3559 48.048 25.9639 47.168C26.5719 46.272 26.8759 45.064 26.8759 43.544C26.8759 42.024 26.5719 40.832 25.9639 39.968C25.3559 39.104 24.3959 38.672 23.0839 38.672C21.7719 38.672 20.8199 39.104 20.2279 39.968C19.6359 40.832 19.3399 42.024 19.3399 43.544ZM38.5272 36.896C40.1112 36.896 41.3832 37.448 42.3432 38.552C43.3192 39.656 43.8072 41.32 43.8072 43.544C43.8072 45.736 43.3192 47.4 42.3432 48.536C41.3832 49.672 40.1032 50.24 38.5032 50.24C37.5112 50.24 36.6872 50.056 36.0312 49.688C35.3912 49.304 34.8872 48.864 34.5192 48.368H34.3752C34.4072 48.64 34.4392 48.984 34.4712 49.4C34.5032 49.816 34.5192 50.176 34.5192 50.48V55.76H32.4072V37.136H34.1352L34.4232 38.888H34.5192C34.9032 38.328 35.4072 37.856 36.0312 37.472C36.6552 37.088 37.4872 36.896 38.5272 36.896ZM38.1432 38.672C36.8312 38.672 35.9032 39.04 35.3592 39.776C34.8312 40.512 34.5512 41.632 34.5192 43.136V43.544C34.5192 45.128 34.7752 46.352 35.2872 47.216C35.8152 48.064 36.7832 48.488 38.1912 48.488C38.9752 48.488 39.6152 48.272 40.1112 47.84C40.6232 47.408 40.9992 46.824 41.2392 46.088C41.4952 45.336 41.6232 44.48 41.6232 43.52C41.6232 42.048 41.3352 40.872 40.7592 39.992C40.1992 39.112 39.3272 38.672 38.1432 38.672ZM50.5568 36.896C52.0288 36.896 53.1968 37.192 54.0608 37.784C54.9408 38.36 55.3808 39.192 55.3808 40.28C55.3808 41.064 55.1648 41.688 54.7328 42.152C54.3008 42.6 53.7088 42.928 52.9568 43.136V43.232C53.4688 43.376 53.9408 43.576 54.3728 43.832C54.8048 44.088 55.1488 44.424 55.4048 44.84C55.6768 45.256 55.8128 45.792 55.8128 46.448C55.8128 47.52 55.3648 48.424 54.4688 49.16C53.5888 49.88 52.2048 50.24 50.3168 50.24C49.3888 50.24 48.5488 50.16 47.7968 50C47.0448 49.856 46.4208 49.656 45.9248 49.4V47.504C46.4688 47.76 47.1088 47.992 47.8448 48.2C48.5968 48.408 49.4128 48.512 50.2928 48.512C51.2528 48.512 52.0608 48.352 52.7168 48.032C53.3888 47.696 53.7248 47.128 53.7248 46.328C53.7248 44.888 52.5008 44.168 50.0528 44.168H48.3248V42.44H49.7168C50.8208 42.44 51.7008 42.296 52.3568 42.008C53.0288 41.704 53.3648 41.192 53.3648 40.472C53.3648 39.864 53.1088 39.408 52.5968 39.104C52.1008 38.8 51.3808 38.648 50.4368 38.648C49.7328 38.648 49.1088 38.72 48.5648 38.864C48.0368 38.992 47.4528 39.192 46.8128 39.464L46.0688 37.784C47.4128 37.192 48.9088 36.896 50.5568 36.896ZM60.9304 44.984C60.9304 45.176 60.9224 45.464 60.9064 45.848C60.8904 46.232 60.8664 46.616 60.8344 47C60.8184 47.384 60.8024 47.688 60.7864 47.912L67.6744 37.136H70.2664V50H68.2984V42.416C68.2984 42.16 68.2984 41.824 68.2984 41.408C68.3144 40.992 68.3304 40.584 68.3464 40.184C68.3624 39.768 68.3784 39.456 68.3944 39.248L61.5544 50H58.9384V37.136H60.9304V44.984ZM76.4723 37.136V42.488H83.4563V37.136H85.5683V50H83.4563V44.264H76.4723V50H74.3603V37.136H76.4723ZM94.5136 36.92C96.0816 36.92 97.2416 37.264 97.9936 37.952C98.7456 38.64 99.1216 39.736 99.1216 41.24V50H97.5856L97.1776 48.176H97.0816C96.5216 48.88 95.9296 49.4 95.3056 49.736C94.6976 50.072 93.8496 50.24 92.7616 50.24C91.5936 50.24 90.6256 49.936 89.8576 49.328C89.0896 48.704 88.7056 47.736 88.7056 46.424C88.7056 45.144 89.2096 44.16 90.2176 43.472C91.2256 42.768 92.7776 42.384 94.8736 42.32L97.0576 42.248V41.48C97.0576 40.408 96.8256 39.664 96.3616 39.248C95.8976 38.832 95.2416 38.624 94.3936 38.624C93.7216 38.624 93.0816 38.728 92.4736 38.936C91.8656 39.128 91.2976 39.352 90.7696 39.608L90.1216 38.024C90.6816 37.72 91.3456 37.464 92.1136 37.256C92.8816 37.032 93.6816 36.92 94.5136 36.92ZM95.1376 43.784C93.5376 43.848 92.4256 44.104 91.8016 44.552C91.1936 45 90.8896 45.632 90.8896 46.448C90.8896 47.168 91.1056 47.696 91.5376 48.032C91.9856 48.368 92.5536 48.536 93.2416 48.536C94.3296 48.536 95.2336 48.24 95.9536 47.648C96.6736 47.04 97.0336 46.112 97.0336 44.864V43.712L95.1376 43.784Z" fill="white"/>
</svg>
