<svg width="77" height="71" viewBox="0 0 77 71" fill="none" xmlns="http://www.w3.org/2000/svg">
<g style="mix-blend-mode:luminosity">
<path d="M5.97494 67.5284L21.1312 53.6551C21.8737 52.9729 22.3124 52.0272 22.3514 51.0251C22.3904 50.0229 22.0264 49.046 21.3391 48.3082C17.7686 44.3584 15.6221 39.3493 15.2359 34.0656C14.8497 28.782 16.2456 23.5222 19.205 19.1105C22.1643 14.6987 26.52 11.384 31.5895 9.68587C36.659 7.9877 42.156 8.00193 47.2193 9.72632C52.2827 11.4507 56.6262 14.7878 59.5696 19.2149C62.513 23.642 63.8899 28.9089 63.4845 34.1905C63.0792 39.4721 60.9146 44.4701 57.3297 48.4013C53.7449 52.3326 48.9424 54.9751 43.6746 55.9149C39.8534 56.5865 35.9247 56.3492 32.2129 55.2227C31.7782 55.0898 31.3213 55.0429 30.8684 55.0847C30.4155 55.1265 29.9755 55.2561 29.5733 55.4662C29.1712 55.6763 28.8149 55.9628 28.5248 56.3092C28.2347 56.6556 28.0164 57.0553 27.8824 57.4853C27.6119 58.3538 27.7012 59.2934 28.1307 60.0973C28.5602 60.9012 29.2947 61.5037 30.1727 61.7721C37.2562 63.9344 44.8844 63.5297 51.6894 60.6305C58.4944 57.7314 64.031 52.5274 67.3063 45.9518C70.5816 39.3762 71.3814 31.8593 69.5621 24.7489C67.7429 17.6386 63.4237 11.4 57.3791 7.15203C51.3345 2.90402 43.9599 0.924457 36.5778 1.56835C29.1958 2.21223 22.2892 5.43745 17.0966 10.6656C11.904 15.8938 8.7652 22.7828 8.24296 30.0974C7.72073 37.412 9.84928 44.6735 14.2469 50.5798L1.24294 62.4962C0.908823 62.8013 0.638862 63.1686 0.44852 63.5772C0.258187 63.9857 0.151213 64.4275 0.133728 64.8772C0.116244 65.3269 0.188593 65.7756 0.346629 66.1977C0.504673 66.6199 0.745297 67.007 1.05472 67.3371C1.36362 67.6721 1.73668 67.9431 2.15221 68.1343C2.56774 68.3255 3.01746 68.4332 3.47524 68.451C3.93303 68.4688 4.38974 68.3964 4.81886 68.238C5.24799 68.0796 5.64096 67.8384 5.97494 67.5284Z" fill="#881A41"/>
</g>
<g style="mix-blend-mode:luminosity">
<path d="M39.3384 17.085C39.3487 17.8348 39.6079 18.5572 40.0753 19.1389C40.5428 19.7206 41.1919 20.1285 41.9208 20.2985C43.949 20.8068 45.7981 21.8509 47.2753 23.322C48.7526 24.7931 49.804 26.6375 50.3201 28.663C50.4864 29.358 50.874 29.9781 51.4249 30.4305C51.9758 30.8828 52.6604 31.143 53.3761 31.1722L53.658 31.1854C54.1679 31.2041 54.6764 31.1049 55.1441 30.8954C55.6117 30.6859 56.0258 30.3719 56.3541 29.9777C56.6824 29.5835 56.9161 29.1199 57.0369 28.6229C57.1577 28.1259 57.1624 27.6089 57.0507 27.1123C56.2457 23.8232 54.555 20.8258 52.1611 18.4436C49.7672 16.0615 46.761 14.385 43.4669 13.5951C42.9843 13.4809 42.4811 13.4769 41.9944 13.5834C41.5078 13.6899 41.0501 13.9041 40.6553 14.2102C40.2605 14.5164 39.9387 14.9066 39.7136 15.352C39.4886 15.7975 39.366 16.2867 39.3551 16.7836L39.3384 17.085Z" fill="#49081F"/>
</g>
<path d="M7.328 39V21.864H20.192V39H18.056V23.76H9.488V39H7.328ZM35.7787 32.544C35.7787 34.672 35.2347 36.32 34.1467 37.488C33.0747 38.656 31.6187 39.24 29.7787 39.24C28.6427 39.24 27.6267 38.984 26.7307 38.472C25.8507 37.944 25.1547 37.184 24.6427 36.192C24.1307 35.184 23.8747 33.968 23.8747 32.544C23.8747 30.416 24.4107 28.776 25.4827 27.624C26.5547 26.472 28.0107 25.896 29.8507 25.896C31.0187 25.896 32.0427 26.16 32.9227 26.688C33.8187 27.2 34.5147 27.952 35.0107 28.944C35.5227 29.92 35.7787 31.12 35.7787 32.544ZM26.0587 32.544C26.0587 34.064 26.3547 35.272 26.9467 36.168C27.5547 37.048 28.5147 37.488 29.8267 37.488C31.1227 37.488 32.0747 37.048 32.6827 36.168C33.2907 35.272 33.5947 34.064 33.5947 32.544C33.5947 31.024 33.2907 29.832 32.6827 28.968C32.0747 28.104 31.1147 27.672 29.8027 27.672C28.4907 27.672 27.5387 28.104 26.9467 28.968C26.3547 29.832 26.0587 31.024 26.0587 32.544ZM41.1179 33.984C41.1179 34.176 41.1099 34.464 41.0939 34.848C41.0779 35.232 41.0539 35.616 41.0219 36C41.0059 36.384 40.9899 36.688 40.9739 36.912L47.8619 26.136H50.4539V39H48.4859V31.416C48.4859 31.16 48.4859 30.824 48.4859 30.408C48.5019 29.992 48.5179 29.584 48.5339 29.184C48.5499 28.768 48.5659 28.456 48.5819 28.248L41.7419 39H39.1259V26.136H41.1179V33.984ZM59.7078 39.24C58.5718 39.24 57.5558 39.008 56.6598 38.544C55.7798 38.08 55.0838 37.36 54.5718 36.384C54.0758 35.408 53.8278 34.16 53.8278 32.64C53.8278 31.056 54.0918 29.768 54.6198 28.776C55.1478 27.784 55.8598 27.056 56.7558 26.592C57.6678 26.128 58.6998 25.896 59.8518 25.896C60.5078 25.896 61.1398 25.968 61.7478 26.112C62.3558 26.24 62.8518 26.4 63.2358 26.592L62.5878 28.344C62.2038 28.2 61.7558 28.064 61.2438 27.936C60.7318 27.808 60.2518 27.744 59.8038 27.744C57.2758 27.744 56.0118 29.368 56.0118 32.616C56.0118 34.168 56.3158 35.36 56.9238 36.192C57.5478 37.008 58.4678 37.416 59.6838 37.416C60.3878 37.416 61.0038 37.344 61.5318 37.2C62.0758 37.056 62.5718 36.88 63.0198 36.672V38.544C62.5878 38.768 62.1078 38.936 61.5798 39.048C61.0678 39.176 60.4438 39.24 59.7078 39.24ZM73.6871 26.136H75.9911L70.4951 32.328L76.4471 39H73.9991L68.1911 32.472V39H66.0791V26.136H68.1911V32.376L73.6871 26.136Z" fill="white"/>
</svg>
